{"title":"AWAYDAYS 2009 IN H.264 BY WINKER","uid":5118916,"size":1048224226,"categoryP":"video","categoryS":"movies","magnet":"?xt=urn:btih:039d8e72b730cc2949bd41e202ef8ac8d86c57aa&amp;dn=AWAYDAYS+2009+IN+H.264+BY+WINKER&amp;tr=udp%3A%2F%2Ftracker.openbittorrent.com%3A80&amp;tr=udp%3A%2F%2Fopen.demonii.com%3A1337&amp;tr=udp%3A%2F%2Ftracker.coppersurfer.tk%3A6969&amp;tr=udp%3A%2F%2Fexodus.desync.com%3A6969","seeders":0,"leechers":0,"uploader":"alanwatson","files":-1,"time":1255210677,"description":"When Carty meets Elvis at a Bunnymen gig, they fall headlong into a volatile friendship that each of them aches for but neither can control. Violent, sexy and funny, Awaydays is a blade-sharp rites-of-passage that buzzes with the post-punk energy of its late-70's Liverpool setting.\n\nBased on the classic novel by Kevin Sampson, and pulsating to a soundtrack of Joy Division, The Cure, Magazine, Echo &amp; The Bunnymen and Ultravox, Awaydays examines identity, fate, the nature of male longings and their need to belong. It is the first major feature film to be set during, and evocatively portray, the first dawning of the football casual fashion cult. Quadrophenia meets Control. Trainspotting meets Stand By Me. Awaydays is all of these - A Catcher In The Rye with switchblades.\n\nFormat : MPEG-4\nFormat profile : Base Media / Version 2\nCodec ID : mp42\nFile size : 998 MiB\nDuration : 1h 40mn\nOverall bit rate : 1 385 Kbps\nEncoded date : UTC 2009-10-08 12:04:41\nTagged date : UTC 2009-10-08 17:50:21\nWriting application : HandBrake 0.9.3 2008112300\n\nVideo\nID : 1\nFormat : AVC\nFormat/Info : Advanced Video Codec\nFormat profile : &lt;a class=&quot;__cf_email__&quot; href=&quot;/cdn-cgi/l/email-protection&quot; data-cfemail=&quot;2b664a42456b671f051b&quot;&gt;[email&amp;#160;protected]&lt;/a&gt;&lt;script cf-hash='f9e31' type=&quot;text/javascript&quot;&gt;\n/* &lt;![CDATA[ */!function(){try{var t=&quot;currentScript&quot;in document?document.currentScript:function(){for(var t=document.getElementsByTagName(&quot;script&quot;),e=t.length;e--;)if(t[e].getAttribute(&quot;cf-hash&quot;))return t[e]}();if(t&amp;&amp;t.previousSibling){var e,r,n,i,c=t.previousSibling,a=c.getAttribute(&quot;data-cfemail&quot;);if(a){for(e=&quot;&quot;,r=parseInt(a.substr(0,2),16),n=2;a.length-n;n+=2)i=parseInt(a.substr(n,2),16)^r,e+=String.fromCharCode(i);e=document.createTextNode(e),c.parentNode.replaceChild(e,c)}}}catch(u){}}();/* ]]&gt; */&lt;/script&gt;\nFormat settings, CABAC : Yes\nFormat settings, ReFrames : 3 frames\nCodec ID : avc1\nCodec ID/Info : Advanced Video Coding\nDuration : 1h 40mn\nBit rate mode : Variable\nBit rate : 1 221 Kbps\nWidth : 716 pixels\nHeight : 552 pixels\nDisplay aspect ratio : 16:9\nFrame rate mode : Variable\nFrame rate : 25.000 fps\nMinimum frame rate : 12.500 fps\nMaximum frame rate : 25.000 fps\nResolution : 24 bits\nColorimetry : 4:2:0\nScan type : Progressive\nBits/(Pixel*Frame) : 0.124\nStream size : 880 MiB (88%)\nWriting library : x264 core 65\n\n\nAudio\nID : 2\nFormat : AAC\nFormat/Info : Advanced Audio Codec\nFormat version : Version 4\nFormat profile : LC\nFormat settings, SBR : No\nCodec ID : 40\nDuration : 1h 40mn\nBit rate mode : Variable\nBit rate : 160 Kbps\nMaximum bit rate : 223 Kbps\nChannel(s) : 2 channels\nChannel positions : L R\nSampling rate : 48.0 KHz\nResolution : 16 bits\nStream size : 115 MiB (12%)\nLanguage : English\nEncoded date : UTC 2009-10-08 12:04:41","torrent":{"xt":"urn:btih:039d8e72b730cc2949bd41e202ef8ac8d86c57aa","amp;dn":"AWAYDAYS+2009+IN+H.264+BY+WINKER","amp;tr":["udp%3A%2F%2Ftracker.openbittorrent.com%3A80","udp%3A%2F%2Fopen.demonii.com%3A1337","udp%3A%2F%2Ftracker.coppersurfer.tk%3A6969","udp%3A%2F%2Fexodus.desync.com%3A6969"],"infoHash":"039d8e72b730cc2949bd41e202ef8ac8d86c57aa","infoHashBuffer":{"type":"Buffer","data":[3,157,142,114,183,48,204,41,73,189,65,226,2,239,138,200,216,108,87,170]},"announce":[],"urlList":[]}}